<svg width="364" height="238" viewBox="0 0 364 238" fill="none" xmlns="http://www.w3.org/2000/svg">
<path d="M299.622 124.171C299.567 152.497 288.917 179.778 269.767 200.65C250.616 221.522 224.351 234.476 196.134 236.964C167.918 239.453 139.791 231.296 117.283 214.098C94.7752 196.9 79.5151 171.904 74.5025 144.025C69.4899 116.146 75.0876 87.3997 90.195 63.4383C105.302 39.477 128.827 22.0337 156.143 14.5376C183.459 7.04153 212.592 10.0349 237.813 22.9294C263.034 35.8238 282.52 57.6864 292.439 84.2193C292.686 84.8855 292.928 85.5517 293.162 86.2244V86.2308C294.209 89.1877 295.132 92.1998 295.929 95.2668C298.389 104.704 299.63 114.418 299.622 124.171V124.171Z" fill="#3F3D56"/>
<path d="M172.906 47.1081C167.773 44.3324 162.074 42.7655 156.243 42.5269C150.413 42.2884 144.605 43.3845 139.262 45.7317C134.558 47.7789 129.605 51.4513 128.036 58.0831C134.382 54.3375 142.598 60.2555 144.231 69.7492L143.85 69.8543C142.987 76.4301 144.913 83.5893 148.641 87.6667C148.918 85.8269 149.602 84.072 150.642 82.5293C151.682 80.9867 153.053 79.6951 154.654 78.7483C157.393 76.9477 160.424 75.6397 162.514 72.5447C164.993 68.8755 165.622 63.513 166.607 58.6211C167.591 53.7291 169.459 48.4712 172.906 47.1081Z" fill="#6C63FF"/>
<path d="M137.379 103.066C135.622 105.705 133.274 107.362 131.167 109.424C128.735 111.636 127.139 114.619 126.649 117.87C126.383 120.167 126.795 122.502 126.738 124.825C126.681 127.147 125.907 129.761 124.327 130.339C121.833 131.24 119.929 126.608 117.366 126.284C115.329 126.03 113.495 129.235 114.085 132.014C114.675 134.793 117.448 136.024 119.041 134.21C120.481 136.627 119.466 141.012 117.302 141.754C117.073 143.277 116.845 144.794 116.623 146.317C111.153 142.49 105.626 138.601 100.975 132.997C95.8019 126.819 92.5934 119.235 91.7612 111.22C91.1583 104.779 92.0531 97.4117 89.0962 92.4559C86.7292 88.4899 82.668 87.6142 79.013 87.8617C78.3467 87.9061 77.6742 87.9822 77.0078 88.0647C79.1633 81.5907 81.9009 75.3253 85.1871 69.3453C85.9308 69.0261 86.6218 68.5961 87.2367 68.0698C90.6379 65.1827 92.1483 59.3383 94.9084 55.2962C95.0862 55.0361 95.2702 54.7822 95.4605 54.5348C98.2844 50.848 102.066 48.9507 105.721 47.1866C113.812 43.2588 122.137 39.2801 130.678 39.8258L128.248 40.0606C125.411 48.0052 122.573 55.9499 119.732 63.8945C119.301 65.1128 118.865 66.3332 118.425 67.5559C116.813 72.0739 115.151 76.8838 115.398 81.9413C115.544 84.9363 116.585 88.1345 118.565 89.1625C120.411 90.1143 122.429 88.9467 124.212 87.7918C124.967 87.3095 125.716 86.8272 126.471 86.3386C129.181 84.5936 132.182 82.8041 135.044 83.9717C137.665 85.0377 139.6 88.5977 139.968 92.4367C140.306 96.1686 139.395 99.9069 137.379 103.066Z" fill="#6C63FF"/>
<path d="M153.494 157.305C145.581 152.433 137.667 147.561 129.754 142.688L129.888 142.342C124.968 144.216 122.925 152.962 123.738 160.115C124.551 167.267 127.308 173.661 128.701 180.63C130.58 190.167 129.871 200.033 126.648 209.203C137.054 197.527 146.263 184.838 154.137 171.324C155.237 169.621 156.076 167.763 156.624 165.811C157.205 163.731 156.998 161.509 156.043 159.572C155.395 158.617 154.519 157.838 153.494 157.305V157.305Z" fill="#6C63FF"/>
<path d="M122.262 68.6612C121.333 70.6565 121.19 72.9286 121.861 75.0247C122.642 76.7135 124.059 78.0254 125.802 78.6747L130.175 80.8421C131.63 81.5632 133.198 82.2914 134.68 81.6982C136.469 80.9826 137.709 78.1786 137.388 75.5754C137.047 72.8053 135.301 70.8998 133.686 69.2772C131.426 67.0065 129.166 64.7357 126.906 62.465L125.632 64.0249C124.255 65.3686 123.115 66.9362 122.262 68.6612V68.6612Z" fill="#6C63FF"/>
<path d="M276.182 98.2746C278.149 98.7379 280.116 99.2011 282.083 99.6642C281.74 106.308 278.447 112.457 274.031 114.684C272.19 115.611 270.141 115.953 268.618 117.686C267.241 119.259 266.543 121.709 265.902 124.05C264.779 128.137 263.656 132.223 262.532 136.31C261.327 140.714 259.779 145.606 256.644 147.192C253.953 148.557 250.876 146.888 248.807 144.089C246.739 141.291 245.476 137.528 244.251 133.86C244.327 137.858 242.468 141.78 239.835 143.169C237.195 144.559 233.984 143.303 232.22 140.2C230.951 137.972 230.424 135.034 229.18 132.775C227.937 130.516 225.329 129.222 223.971 131.341C223.076 132.75 223.19 134.907 222.746 136.697C222.522 137.885 221.934 138.974 221.063 139.812C220.192 140.65 219.081 141.196 217.885 141.374C216.786 141.348 215.703 141.1 214.703 140.643C213.702 140.185 212.805 139.53 212.066 138.715C208.181 134.74 205.651 129.638 204.839 124.139C204.288 121.503 204.358 118.774 205.042 116.169C205.822 113.701 207.707 111.797 209.579 112.267C210.81 109.665 208.38 106.213 206.19 106.518C203.995 106.822 202.275 109.176 200.473 110.985C198.677 112.793 196.165 114.107 194.356 112.311C194.396 112.968 194.174 113.614 193.738 114.107C193.303 114.6 192.689 114.9 192.032 114.94C191.967 114.944 191.902 114.946 191.837 114.944C190.634 114.599 189.517 114.007 188.556 113.206C184.413 110.623 179.152 112.336 176.208 117.222C178.048 109.392 180.745 100.407 186.399 98.5664C188.709 97.8113 191.228 98.4332 193.411 97.126C197.275 94.81 198.056 86.0594 194.718 82.4488C195.143 85.8627 195.06 89.8477 193.258 92.1829C191.456 94.5181 187.674 92.9951 187.903 89.5432C187.851 90.0287 187.648 90.4855 187.321 90.8482C186.994 91.2108 186.561 91.4608 186.083 91.5622C185.606 91.6637 185.108 91.6113 184.662 91.4128C184.216 91.2142 183.845 90.8796 183.6 90.4569C182.401 88.6294 182.503 85.6407 183.353 83.4578C184.23 81.4808 185.487 79.6955 187.052 78.2037C190.067 74.9739 193.125 71.7059 196.615 69.6753C200.112 67.6447 204.147 66.9594 207.65 68.9773C209.497 70.0433 211.121 71.8201 213.006 72.7592C213.449 73.034 213.941 73.2189 214.456 73.3033C214.97 73.3877 215.496 73.37 216.003 73.2511C216.511 73.1323 216.99 72.9147 217.413 72.6107C217.836 72.3067 218.196 71.9223 218.471 71.4794L218.471 71.4794C218.492 71.4452 218.513 71.4107 218.533 71.3758C219.935 68.9137 219.275 65.2587 219.795 62.1812C220.728 56.7431 226.166 54.1985 229.18 57.79C226.928 57.2126 224.599 59.8777 224.32 63.1077C224.034 66.3375 225.665 69.5992 227.848 70.5764C231.516 72.2008 235.107 68.1142 237.88 64.3323C240.774 60.3727 243.672 56.4152 246.574 52.4599C247.037 51.7864 247.557 51.1537 248.128 50.5689C249.037 49.6829 250.249 49.1756 251.518 49.1497C252.787 49.1238 254.018 49.5813 254.962 50.4293C257.894 52.8215 259.271 57.7267 261.676 61.1025C265.166 66.0075 270.388 67.2005 275.249 68.1524C278.872 68.8568 282.498 69.5653 286.125 70.2781C288.544 74.7767 290.653 79.4346 292.439 84.2193C285.787 87.2527 280.145 92.1307 276.182 98.2746V98.2746Z" fill="#6C63FF"/>
<path d="M287.896 174.624C285.177 180.145 282.015 185.435 278.441 190.444C276.156 189.466 273.701 191.211 271.562 192.849C269.329 194.562 266.644 196.231 264.354 194.67C262.012 193.071 261.257 188.597 261.999 185.05C262.853 181.778 264.345 178.707 266.391 176.014C268.294 173.171 270.331 170.22 272.977 169.116C275.63 168.012 279.037 169.573 279.811 173.343L281.69 173.279C280.636 171.832 281.188 168.837 282.604 168.31C284.234 167.695 285.649 169.935 286.614 171.915C287.045 172.809 287.483 173.711 287.896 174.624Z" fill="#6C63FF"/>
<path d="M215.959 147.821C211.922 148.075 208.724 143.105 206.599 138.216C204.474 133.326 202.535 127.735 198.892 125.246C196.81 123.824 194.437 123.629 192.18 122.94C190.899 122.616 189.714 121.992 188.723 121.12C187.732 120.247 186.962 119.15 186.479 117.921L183.919 116.887C180.336 118.677 177.056 121.016 174.195 123.82C170.926 127.292 168.891 131.743 168.401 136.486C167.912 141.612 169.719 147.328 173.094 149.254C175.761 150.775 178.867 149.816 181.568 151.209C184.944 152.95 186.948 158.005 187.706 162.997C188.465 167.989 188.273 173.176 188.815 178.225C189.358 183.273 190.854 188.526 193.949 191.113C197.823 194.35 203.507 191.66 205.245 185.767C206.098 182.876 206.068 179.614 206.706 176.614C207.829 171.329 210.859 167.409 213.262 163.074C215.665 158.739 217.557 152.852 215.959 147.821Z" fill="#6C63FF"/>
<path d="M176.065 95.8947C176.441 96.2413 176.793 96.6143 177.116 97.0108C177.451 97.5881 177.622 98.2458 177.611 98.913C177.599 99.5803 177.406 100.232 177.052 100.797C177.538 100.77 178.013 100.641 178.448 100.421C178.882 100.2 179.266 99.8916 179.575 99.5151C180.311 98.6759 180.96 97.7628 181.509 96.7904C181.767 96.4574 181.951 96.0732 182.05 95.6634C182.148 95.2536 182.158 94.8276 182.079 94.4136C181.888 93.8693 181.437 93.6372 181.121 93.2278C180.683 92.4275 180.384 91.5585 180.236 90.658C180.061 89.8139 179.654 89.0355 179.061 88.4102C178.467 87.7848 177.711 87.3373 176.877 87.118L177.08 87.1567C176.735 87.3611 176.463 87.6681 176.302 88.0347C176.141 88.4013 176.099 88.8091 176.181 89.201C176.303 89.9929 176.812 90.6503 176.762 91.4579C176.689 92.6192 175.528 93.1642 175.456 94.3257C175.445 94.9083 175.664 95.472 176.065 95.8947V95.8947Z" fill="#6C63FF"/>
<path d="M169.148 76.1598L169.166 76.1563C169.29 76.0431 169.405 75.9204 169.51 75.7893L169.148 76.1598Z" fill="#6C63FF"/>
<path d="M170.359 81.6109C170.844 81.1854 171.202 80.6348 171.396 80.0193C171.589 79.4038 171.609 78.7471 171.455 78.1207C171.161 76.8003 170.123 75.9124 169.166 76.1563C168.888 76.4379 168.543 76.6443 168.164 76.756C167.784 76.8677 167.383 76.8811 166.997 76.7949C166.405 76.6425 165.755 76.25 165.242 76.6961C164.948 77.0291 164.742 77.4305 164.644 77.8635C164.454 78.4468 164.264 79.0301 164.074 79.6133C163.983 79.8222 163.96 80.0537 164.006 80.2764C164.043 80.3657 164.101 80.4441 164.177 80.5041C164.252 80.5641 164.342 80.6036 164.437 80.6189L167.857 81.6273C168.25 81.8082 168.678 81.9005 169.11 81.8976C169.542 81.8948 169.968 81.7969 170.359 81.6109V81.6109Z" fill="#6C63FF"/>
<path d="M256.431 156.868C255.904 156.006 255.377 155.143 254.85 154.28C254.332 153.281 253.624 152.392 252.766 151.664C252.391 151.349 251.906 151.197 251.418 151.24C250.931 151.283 250.48 151.518 250.166 151.893L250.165 151.894L250.138 151.927L250.202 152.42C251.613 153.933 252.575 155.809 252.979 157.838C253.099 158.72 253.057 159.633 253.163 160.518C253.174 160.929 253.266 161.334 253.433 161.709C253.601 162.084 253.841 162.422 254.139 162.704C254.969 163.259 255.944 162.441 256.534 161.444C257.062 160.625 257.299 159.652 257.207 158.681C257.075 158.03 256.811 157.413 256.431 156.868V156.868Z" fill="#6C63FF"/>
<path d="M264.698 157.991C264.799 157.184 264.733 156.364 264.505 155.582C264.468 154.525 264.748 153.48 265.31 152.584C265.868 151.738 266.291 150.811 266.564 149.835C266.679 149.39 266.658 148.921 266.504 148.489C266.329 148.097 265.907 147.918 265.665 148.228L266.183 148.562C265.483 148.437 264.763 148.472 264.078 148.664C263.687 148.814 263.339 149.055 263.061 149.369C262.783 149.682 262.585 150.057 262.483 150.463C262.397 151.095 262.257 151.72 262.065 152.329C261.755 152.965 261.156 153.176 260.78 153.734C260.523 154.229 260.394 154.78 260.403 155.337C260.412 155.895 260.56 156.441 260.833 156.927C261.305 157.722 262.057 158.313 262.941 158.585C263.574 158.812 264.408 158.824 264.698 157.991Z" fill="#6C63FF"/>
<path d="M279.421 162.434C279.65 163.029 279.957 163.592 280.334 164.108C281.039 164.818 281.996 164.382 282.852 164.209C283.628 164.087 284.422 164.176 285.151 164.469C285.88 164.761 286.517 165.245 286.993 165.87C286.661 164.216 285.938 162.666 284.883 161.35C283.828 160.034 282.472 158.99 280.93 158.306C278.927 157.613 276.815 157.283 274.695 157.331L274.333 157.424C275.256 160.11 278.153 160.05 279.421 162.434Z" fill="#6C63FF"/>
<path d="M217.063 167.927L217.069 167.939L217.174 167.736L217.063 167.927Z" fill="#6C63FF"/>
<path d="M214.83 172.25C214.343 173.135 213.924 174.055 213.577 175.003C213.117 176.539 212.813 178.117 212.669 179.713C212.555 180.621 212.52 181.78 213.089 182.222C213.252 182.331 213.449 182.376 213.644 182.35C213.838 182.323 214.016 182.227 214.144 182.079C214.46 181.745 214.719 181.361 214.909 180.942C216.027 179.017 216.895 176.957 217.492 174.813C218.115 172.538 217.966 170.12 217.069 167.939C216.322 169.376 215.576 170.813 214.83 172.25Z" fill="#6C63FF"/>
<path d="M193.282 57.0687C193.637 57.4155 194.086 57.651 194.573 57.746C195.06 57.841 195.564 57.7915 196.023 57.6036C196.974 57.1879 197.846 56.6118 198.602 55.9004C199.227 55.4375 199.758 54.8586 200.165 54.1952C200.389 53.7987 200.532 53.3619 200.587 52.9098C200.642 52.4577 200.607 51.9992 200.484 51.5607C200.31 51.1405 200.031 50.7719 199.674 50.4896C199.317 50.2072 198.894 50.0206 198.445 49.9473C197.179 49.5719 195.914 49.1967 194.648 48.8215L195.564 47.9964C194.622 47.4909 193.58 48.429 192.991 49.5905C192.614 50.3489 192.351 51.159 192.21 51.9945C192.01 52.8674 192.002 53.7735 192.187 54.6497C192.373 55.526 192.746 56.3514 193.282 57.0687V57.0687Z" fill="#6C63FF"/>
<path d="M215.625 49.5681C215.982 49.9613 216.475 50.2041 217.004 50.2472C217.533 50.2902 218.059 50.1303 218.474 49.7999C218.832 49.5313 219.129 49.1903 219.346 48.7993C219.563 48.4082 219.696 47.9757 219.734 47.5301C219.824 46.5346 219.332 45.4282 218.629 45.3422L218.79 44.4102C217.436 44.1657 215.769 44.1167 215.044 45.7612C214.799 46.3911 214.724 47.0742 214.826 47.7423C214.928 48.4104 215.203 49.04 215.625 49.5681V49.5681Z" fill="#6C63FF"/>
<path d="M17.5625 222.423C9.48084 222.423 4.2268 220.415 1.90136 216.422C-2.68442 208.55 4.99592 194.737 24.7286 175.367L26.3863 177.056C8.05661 195.049 0.0870178 208.606 3.94567 215.232C6.38742 219.422 13.6541 220.924 24.9647 219.573C36.1929 218.233 51.073 214.237 69.1916 207.698C106.493 194.236 153.291 171.529 200.965 143.758C248.637 115.989 291.475 86.4821 321.586 60.6751C327.37 55.7173 332.619 50.9478 337.187 46.5003C343.184 40.8041 348.717 34.6382 353.732 28.0612C360.486 18.8904 362.766 11.8278 360.324 7.63681C356.246 0.636996 339.116 1.29518 312.087 9.49279L311.401 7.22821C340.4 -1.56555 357.549 -1.82936 362.369 6.44601C365.364 11.5875 363.099 19.3322 355.637 29.4647C350.545 36.1459 344.928 42.4094 338.838 48.1957C334.234 52.6783 328.948 57.4813 323.126 62.4718C292.909 88.3694 249.948 117.964 202.156 145.803C154.362 173.643 107.426 196.416 69.995 209.924C51.7077 216.524 36.6516 220.561 25.2451 221.922C22.6963 222.24 20.131 222.407 17.5625 222.423V222.423Z" fill="#3F3D56"/>
</svg>
