<svg width="711" height="682" viewBox="0 0 711 682" fill="none" xmlns="http://www.w3.org/2000/svg">
<circle cx="341" cy="341" r="341" fill="#FFD829"/>
<g clip-path="url(#clip0_209_4)">
<path d="M555.58 481.172C554.511 481.655 553.335 481.852 552.166 481.745L330.779 461.854C328.978 461.69 327.316 460.819 326.157 459.431C324.998 458.044 324.437 456.253 324.597 454.452L352.307 146.029C352.387 145.137 352.641 144.27 353.057 143.476C353.472 142.683 354.04 141.979 354.727 141.405C355.414 140.831 356.208 140.398 357.063 140.13C357.918 139.863 358.817 139.767 359.709 139.847L581.096 159.738C582.897 159.902 584.559 160.773 585.718 162.161C586.877 163.548 587.438 165.339 587.279 167.14L559.568 475.562C559.49 476.455 559.237 477.323 558.821 478.117C558.406 478.911 557.837 479.615 557.148 480.187C556.672 480.585 556.145 480.916 555.58 481.172Z" fill="#E6E6E6"/>
<path d="M351.744 157.876L351.603 159.449L585.579 180.471L585.72 178.897L351.744 157.876Z" fill="white"/>
<path d="M349.199 186.2L349.058 187.774L583.034 208.795L583.175 207.222L349.199 186.2Z" fill="white"/>
<path d="M346.654 214.525L346.513 216.098L580.489 237.12L580.63 235.546L346.654 214.525Z" fill="white"/>
<path d="M344.109 242.849L343.968 244.423L577.944 265.444L578.085 263.871L344.109 242.849Z" fill="white"/>
<path d="M341.565 271.174L341.423 272.747L575.399 293.769L575.541 292.195L341.565 271.174Z" fill="white"/>
<path d="M339.02 299.498L338.879 301.072L572.855 322.093L572.996 320.52L339.02 299.498Z" fill="white"/>
<path d="M336.475 327.823L336.334 329.396L570.31 350.418L570.451 348.844L336.475 327.823Z" fill="white"/>
<path d="M333.93 356.147L333.789 357.721L567.765 378.742L567.906 377.169L333.93 356.147Z" fill="white"/>
<path d="M331.386 384.472L331.244 386.045L565.22 407.067L565.361 405.493L331.386 384.472Z" fill="white"/>
<path d="M328.841 412.796L328.699 414.37L562.675 435.391L562.817 433.818L328.841 412.796Z" fill="white"/>
<path d="M326.296 441.121L326.155 442.694L560.131 463.716L560.272 462.142L326.296 441.121Z" fill="white"/>
<path d="M522.278 451.24C521.208 451.723 520.032 451.92 518.863 451.813L297.476 431.922C295.675 431.758 294.013 430.887 292.854 429.499C291.695 428.111 291.134 426.321 291.294 424.52L319.004 116.097C319.084 115.205 319.339 114.337 319.754 113.544C320.169 112.75 320.737 112.047 321.424 111.472C322.112 110.898 322.906 110.465 323.76 110.198C324.615 109.931 325.514 109.835 326.406 109.915L547.793 129.806C549.594 129.97 551.256 130.841 552.415 132.228C553.574 133.616 554.135 135.407 553.976 137.208L526.265 445.63C526.188 446.523 525.934 447.391 525.518 448.185C525.103 448.979 524.534 449.682 523.845 450.255C523.369 450.653 522.842 450.984 522.278 451.24Z" fill="#F2F2F2"/>
<path d="M318.441 127.944L318.3 129.517L552.276 150.539L552.417 148.965L318.441 127.944Z" fill="white"/>
<path d="M315.897 156.268L315.755 157.842L549.731 178.863L549.872 177.29L315.897 156.268Z" fill="white"/>
<path d="M313.352 184.593L313.21 186.166L547.186 207.188L547.328 205.614L313.352 184.593Z" fill="white"/>
<path d="M310.807 212.917L310.666 214.491L544.641 235.512L544.783 233.939L310.807 212.917Z" fill="white"/>
<path d="M308.262 241.242L308.121 242.815L542.097 263.837L542.238 262.263L308.262 241.242Z" fill="white"/>
<path d="M305.717 269.566L305.576 271.14L539.552 292.161L539.693 290.588L305.717 269.566Z" fill="white"/>
<path d="M303.173 297.891L303.031 299.464L537.007 320.486L537.149 318.912L303.173 297.891Z" fill="white"/>
<path d="M300.628 326.215L300.486 327.789L534.462 348.81L534.604 347.236L300.628 326.215Z" fill="white"/>
<path d="M298.083 354.54L297.942 356.113L531.918 377.135L532.059 375.561L298.083 354.54Z" fill="white"/>
<path d="M295.538 382.864L295.397 384.438L529.373 405.459L529.514 403.886L295.538 382.864Z" fill="white"/>
<path d="M292.993 411.189L292.852 412.762L526.828 433.784L526.969 432.21L292.993 411.189Z" fill="white"/>
<path d="M342.175 100.022L60.4429 227.515L237.725 619.269L519.457 491.776C520.469 491.318 521.257 490.476 521.649 489.437C522.041 488.398 522.004 487.245 521.546 486.233L347.718 102.111C347.26 101.099 346.418 100.31 345.379 99.9183C344.34 99.5265 343.187 99.5637 342.175 100.022ZM248.731 601.263C247.348 601.889 245.809 602.09 244.311 601.842C242.813 601.594 241.422 600.907 240.314 599.869C239.206 598.83 238.431 597.486 238.087 596.007C237.742 594.528 237.845 592.98 238.38 591.559C238.916 590.138 239.861 588.907 241.096 588.023C242.331 587.139 243.8 586.641 245.318 586.592C246.836 586.543 248.334 586.946 249.623 587.748C250.912 588.551 251.935 589.718 252.561 591.101C252.977 592.02 253.207 593.011 253.24 594.019C253.272 595.027 253.106 596.032 252.751 596.975C252.395 597.919 251.857 598.783 251.167 599.519C250.478 600.254 249.65 600.847 248.731 601.263ZM232.615 565.649C231.231 566.275 229.693 566.476 228.195 566.228C226.696 565.98 225.305 565.293 224.197 564.255C223.089 563.216 222.314 561.872 221.97 560.393C221.626 558.914 221.728 557.366 222.264 555.945C222.799 554.524 223.744 553.293 224.979 552.409C226.214 551.525 227.683 551.027 229.201 550.978C230.719 550.929 232.217 551.332 233.507 552.134C234.796 552.937 235.818 554.104 236.444 555.487C236.86 556.406 237.091 557.397 237.123 558.405C237.156 559.413 236.99 560.417 236.634 561.361C236.278 562.305 235.74 563.169 235.051 563.905C234.361 564.64 233.533 565.233 232.615 565.649ZM216.498 530.035C215.114 530.661 213.576 530.862 212.078 530.614C210.58 530.366 209.189 529.679 208.081 528.641C206.973 527.602 206.198 526.258 205.854 524.779C205.509 523.3 205.612 521.752 206.147 520.331C206.683 518.91 207.628 517.679 208.863 516.795C210.098 515.911 211.567 515.413 213.085 515.364C214.603 515.315 216.101 515.718 217.39 516.52C218.679 517.323 219.702 518.49 220.328 519.873C220.744 520.792 220.974 521.783 221.007 522.791C221.039 523.799 220.873 524.804 220.518 525.747C220.162 526.691 219.624 527.555 218.934 528.291C218.245 529.026 217.417 529.619 216.498 530.035ZM200.382 494.421C198.998 495.047 197.46 495.248 195.962 495C194.463 494.752 193.072 494.065 191.964 493.027C190.856 491.988 190.081 490.644 189.737 489.165C189.393 487.686 189.495 486.138 190.031 484.717C190.566 483.296 191.511 482.065 192.746 481.181C193.981 480.297 195.45 479.799 196.968 479.75C198.486 479.701 199.984 480.104 201.274 480.906C202.563 481.709 203.585 482.876 204.211 484.259C204.627 485.178 204.858 486.169 204.89 487.177C204.923 488.185 204.757 489.189 204.401 490.133C204.045 491.077 203.507 491.941 202.818 492.677C202.128 493.412 201.3 494.005 200.382 494.421ZM184.265 458.807C182.881 459.433 181.343 459.634 179.845 459.386C178.347 459.138 176.956 458.451 175.848 457.413C174.74 456.374 173.965 455.03 173.621 453.551C173.276 452.072 173.379 450.524 173.914 449.103C174.45 447.682 175.395 446.451 176.63 445.567C177.864 444.683 179.334 444.185 180.852 444.136C182.37 444.087 183.868 444.49 185.157 445.292C186.446 446.095 187.469 447.262 188.095 448.645C188.511 449.564 188.741 450.555 188.774 451.563C188.806 452.571 188.64 453.576 188.284 454.519C187.929 455.463 187.391 456.327 186.701 457.063C186.012 457.798 185.184 458.391 184.265 458.807ZM168.149 423.193C166.765 423.819 165.227 424.02 163.728 423.772C162.23 423.524 160.839 422.837 159.731 421.799C158.623 420.76 157.848 419.416 157.504 417.937C157.16 416.458 157.262 414.91 157.798 413.489C158.333 412.068 159.278 410.837 160.513 409.953C161.748 409.069 163.217 408.571 164.735 408.522C166.253 408.473 167.751 408.876 169.041 409.678C170.33 410.481 171.352 411.648 171.978 413.031C172.394 413.95 172.625 414.941 172.657 415.949C172.69 416.957 172.524 417.961 172.168 418.905C171.812 419.849 171.274 420.713 170.585 421.449C169.895 422.184 169.067 422.777 168.149 423.193ZM152.032 387.579C150.648 388.205 149.11 388.406 147.612 388.158C146.114 387.91 144.723 387.223 143.615 386.185C142.507 385.146 141.732 383.802 141.387 382.323C141.043 380.844 141.146 379.296 141.681 377.875C142.217 376.454 143.162 375.223 144.397 374.339C145.631 373.455 147.101 372.957 148.619 372.908C150.137 372.859 151.635 373.262 152.924 374.064C154.213 374.867 155.236 376.034 155.862 377.417C156.278 378.336 156.508 379.327 156.541 380.335C156.573 381.343 156.407 382.347 156.051 383.291C155.696 384.235 155.158 385.099 154.468 385.835C153.779 386.57 152.951 387.163 152.032 387.579ZM135.916 351.965C134.532 352.591 132.994 352.792 131.495 352.544C129.997 352.296 128.606 351.609 127.498 350.571C126.39 349.532 125.615 348.188 125.271 346.709C124.927 345.23 125.029 343.682 125.565 342.261C126.1 340.84 127.045 339.609 128.28 338.725C129.515 337.841 130.984 337.343 132.502 337.294C134.02 337.245 135.518 337.648 136.808 338.45C138.097 339.253 139.119 340.42 139.745 341.803C140.161 342.722 140.392 343.713 140.424 344.721C140.457 345.729 140.291 346.733 139.935 347.677C139.579 348.621 139.041 349.485 138.352 350.221C137.662 350.956 136.834 351.549 135.916 351.965ZM119.799 316.351C118.415 316.977 116.877 317.178 115.379 316.93C113.881 316.682 112.49 315.995 111.382 314.957C110.274 313.918 109.499 312.574 109.154 311.095C108.81 309.616 108.912 308.068 109.448 306.647C109.984 305.226 110.929 303.995 112.164 303.111C113.398 302.227 114.868 301.729 116.386 301.68C117.903 301.631 119.402 302.034 120.691 302.836C121.98 303.639 123.003 304.806 123.629 306.189C124.045 307.108 124.275 308.099 124.308 309.107C124.34 310.115 124.174 311.119 123.818 312.063C123.463 313.007 122.925 313.871 122.235 314.607C121.545 315.342 120.718 315.935 119.799 316.351ZM103.682 280.737C102.299 281.363 100.761 281.564 99.2624 281.316C97.7641 281.068 96.3731 280.381 95.2651 279.343C94.1572 278.304 93.3821 276.96 93.0379 275.481C92.6938 274.002 92.7959 272.454 93.3316 271.033C93.8672 269.612 94.8122 268.381 96.047 267.497C97.2819 266.613 98.7512 266.115 100.269 266.066C101.787 266.017 103.285 266.42 104.575 267.222C105.864 268.025 106.886 269.192 107.512 270.575C107.928 271.494 108.159 272.485 108.191 273.493C108.224 274.501 108.058 275.505 107.702 276.449C107.346 277.393 106.808 278.257 106.119 278.993C105.429 279.728 104.601 280.321 103.682 280.737ZM87.566 245.123C86.1824 245.749 84.6442 245.95 83.1459 245.702C81.6476 245.454 80.2565 244.767 79.1486 243.729C78.0406 242.69 77.2656 241.346 76.9214 239.867C76.5772 238.388 76.6794 236.84 77.2151 235.419C77.7507 233.998 78.6957 232.767 79.9305 231.883C81.1654 230.999 82.6347 230.501 84.1526 230.452C85.6704 230.403 87.1688 230.806 88.4581 231.608C89.7474 232.411 90.7697 233.578 91.3958 234.961C91.8116 235.88 92.0423 236.871 92.0748 237.879C92.1073 238.887 91.941 239.891 91.5854 240.835C91.2298 241.779 90.6918 242.643 90.0021 243.379C89.3125 244.114 88.4846 244.707 87.566 245.123Z" fill="#3F3D56"/>
<path d="M70.2279 249.138C68.3402 249.992 51.7446 257.395 50.346 254.304C48.9473 251.213 65.4622 243.632 67.3499 242.778L67.9255 244.05C58.1747 248.462 52.346 252.415 51.6972 253.692C53.0849 254.048 59.9014 252.278 69.6523 247.866C79.3814 243.463 85.2057 239.518 85.8762 238.232C85.2234 238.107 82.8712 238.289 77.2388 240.273L76.7749 238.957C86.3188 235.594 86.9822 237.06 87.2319 237.612C88.6305 240.702 72.1156 248.283 70.2279 249.138Z" fill="#2F2E41"/>
<path d="M86.0567 284.116C84.169 284.97 67.5734 292.373 66.1748 289.282C64.7762 286.191 81.2911 278.61 83.1788 277.756L83.7544 279.028C74.0035 283.441 68.1749 287.393 67.5261 288.67C68.9137 289.026 75.7303 287.256 85.4812 282.844C95.2103 278.441 101.035 274.496 101.705 273.21C101.052 273.085 98.7001 273.267 93.0677 275.251L92.6038 273.935C102.148 270.572 102.811 272.038 103.061 272.59C104.459 275.68 87.9444 283.261 86.0567 284.116Z" fill="#2F2E41"/>
<path d="M102.173 319.73C100.285 320.584 83.6899 327.987 82.2913 324.896C80.8926 321.805 97.4075 314.224 99.2953 313.37L99.8708 314.642C90.12 319.055 84.2913 323.007 83.6425 324.284C85.0302 324.64 91.8468 322.87 101.598 318.458C111.327 314.055 117.151 310.11 117.821 308.824C117.169 308.699 114.816 308.881 109.184 310.865L108.72 309.549C118.264 306.186 118.927 307.652 119.177 308.204C120.576 311.294 104.061 318.875 102.173 319.73Z" fill="#2F2E41"/>
<path d="M118.29 355.344C116.402 356.198 99.8064 363.6 98.4077 360.51C97.0091 357.419 113.524 349.838 115.412 348.984L115.987 350.256C106.236 354.668 100.408 358.621 99.759 359.898C101.147 360.254 107.963 358.484 117.714 354.072C127.443 349.669 133.267 345.724 133.938 344.438C133.285 344.312 130.933 344.495 125.301 346.479L124.837 345.163C134.381 341.8 135.044 343.266 135.294 343.818C136.692 346.908 120.177 354.489 118.29 355.344Z" fill="#2F2E41"/>
<path d="M134.406 390.958C132.519 391.812 115.923 399.214 114.524 396.124C113.126 393.033 129.641 385.452 131.528 384.598L132.104 385.87C122.353 390.282 116.524 394.235 115.876 395.512C117.263 395.868 124.08 394.098 133.831 389.686C143.56 385.283 149.384 381.338 150.055 380.052C149.402 379.926 147.05 380.109 141.417 382.093L140.953 380.777C150.497 377.414 151.161 378.88 151.41 379.432C152.809 382.522 136.294 390.103 134.406 390.958Z" fill="#2F2E41"/>
<path d="M150.523 426.572C148.635 427.426 132.04 434.829 130.641 431.738C129.242 428.647 145.757 421.066 147.645 420.212L148.22 421.484C138.47 425.896 132.641 429.849 131.992 431.126C133.38 431.482 140.196 429.712 149.947 425.3C159.676 420.897 165.501 416.952 166.171 415.666C165.518 415.54 163.166 415.723 157.534 417.707L157.07 416.391C166.614 413.028 167.277 414.494 167.527 415.046C168.925 418.136 152.411 425.717 150.523 426.572Z" fill="#2F2E41"/>
<path d="M166.639 462.186C164.752 463.04 148.156 470.443 146.757 467.352C145.359 464.261 161.874 456.68 163.761 455.826L164.337 457.098C154.586 461.51 148.757 465.463 148.109 466.74C149.496 467.096 156.313 465.326 166.064 460.914C175.793 456.511 181.617 452.566 182.288 451.28C181.635 451.155 179.283 451.337 173.65 453.321L173.186 452.005C182.73 448.642 183.394 450.108 183.643 450.66C185.042 453.75 168.527 461.331 166.639 462.186Z" fill="#2F2E41"/>
<path d="M182.756 497.8C180.868 498.654 164.272 506.057 162.874 502.966C161.475 499.875 177.99 492.294 179.878 491.44L180.453 492.712C170.703 497.124 164.874 501.077 164.225 502.354C165.613 502.71 172.429 500.94 182.18 496.528C191.909 492.125 197.734 488.18 198.404 486.894C197.751 486.769 195.399 486.951 189.767 488.935L189.303 487.619C198.847 484.256 199.51 485.722 199.76 486.274C201.158 489.364 184.643 496.945 182.756 497.8Z" fill="#2F2E41"/>
<path d="M198.872 533.414C196.985 534.268 180.389 541.671 178.991 538.58C177.592 535.489 194.107 527.908 195.994 527.054L196.57 528.326C186.819 532.739 180.991 536.691 180.342 537.968C181.729 538.324 188.546 536.554 198.297 532.142C208.026 527.739 213.85 523.794 214.521 522.508C213.868 522.383 211.516 522.565 205.883 524.549L205.419 523.233C214.963 519.87 215.627 521.336 215.876 521.888C217.275 524.978 200.76 532.559 198.872 533.414Z" fill="#2F2E41"/>
<path d="M214.989 569.028C213.101 569.882 196.506 577.285 195.107 574.194C193.708 571.103 210.223 563.522 212.111 562.668L212.686 563.94C202.936 568.352 197.107 572.305 196.458 573.582C197.846 573.938 204.662 572.168 214.413 567.756C224.142 563.353 229.967 559.408 230.637 558.122C229.984 557.997 227.632 558.179 222 560.163L221.536 558.847C231.08 555.484 231.743 556.95 231.993 557.502C233.392 560.592 216.877 568.173 214.989 569.028Z" fill="#2F2E41"/>
<path d="M231.105 604.642C229.218 605.496 212.622 612.899 211.223 609.808C209.825 606.717 226.34 599.136 228.227 598.282L228.803 599.554C219.052 603.967 213.223 607.919 212.575 609.196C213.962 609.552 220.779 607.782 230.53 603.37C240.259 598.967 246.083 595.022 246.754 593.736C246.101 593.611 243.749 593.793 238.116 595.777L237.652 594.461C247.196 591.098 247.86 592.564 248.109 593.116C249.508 596.206 232.993 603.787 231.105 604.642Z" fill="#2F2E41"/>
<path d="M352.396 275.837L212.484 339.152C211.387 339.646 210.139 339.686 209.014 339.262C207.888 338.837 206.977 337.984 206.479 336.888L181.729 282.196C181.234 281.099 181.195 279.851 181.619 278.725C182.043 277.6 182.897 276.688 183.992 276.191L323.904 212.876C325.001 212.382 326.249 212.342 327.374 212.766C328.5 213.19 329.412 214.044 329.909 215.139L354.659 269.832C355.154 270.929 355.193 272.177 354.769 273.302C354.345 274.428 353.491 275.339 352.396 275.837Z" fill="white"/>
<path d="M280.245 255.236L244.631 271.353C243.788 271.735 242.828 271.766 241.961 271.439C241.095 271.113 240.394 270.455 240.012 269.612C239.631 268.769 239.6 267.808 239.926 266.942C240.253 266.076 240.91 265.375 241.753 264.993L277.367 248.877C278.211 248.495 279.171 248.464 280.037 248.791C280.903 249.117 281.604 249.774 281.986 250.618C282.368 251.461 282.399 252.421 282.072 253.288C281.746 254.154 281.089 254.855 280.245 255.236L280.245 255.236Z" fill="#6C63FF"/>
<path d="M307.155 262.214L232.111 296.174C231.268 296.555 230.307 296.586 229.441 296.26C228.575 295.933 227.874 295.276 227.492 294.433C227.111 293.589 227.08 292.629 227.406 291.763C227.733 290.897 228.39 290.196 229.233 289.814L304.277 255.854C305.12 255.473 306.081 255.442 306.947 255.768C307.813 256.094 308.514 256.752 308.896 257.595C309.278 258.438 309.309 259.399 308.982 260.265C308.656 261.131 307.998 261.832 307.155 262.214Z" fill="#6C63FF"/>
<path d="M314.35 278.113L239.306 312.073C238.463 312.454 237.502 312.485 236.636 312.159C235.77 311.832 235.069 311.175 234.687 310.332C234.306 309.489 234.275 308.528 234.601 307.662C234.928 306.796 235.585 306.095 236.428 305.713L311.472 271.753C312.315 271.372 313.276 271.341 314.142 271.667C315.008 271.994 315.709 272.651 316.091 273.494C316.472 274.337 316.503 275.298 316.177 276.164C315.85 277.03 315.193 277.731 314.35 278.113Z" fill="#6C63FF"/>
</g>
<defs>
<clipPath id="clip0_209_4">
<rect width="526" height="459" fill="white" transform="translate(42 235.861) rotate(-24.3483)"/>
</clipPath>
</defs>
</svg>
